{
  "accessors": [
    {
      "bufferView": 1,
      "componentType": 5126,
      "count": 4810,
      "max": [
        23.006999969482422,
        -0.0,
        30.354000091552734
      ],
      "min": [
        -19.367000579833984,
        -24.305999755859375,
        -45.619998931884766
      ],
      "type": "VEC3"
    },
    {
      "bufferView": 1,
      "byteOffset": 57720,
      "componentType": 5126,
      "count": 4810,
      "max": [
        1.0,
        1.0,
        1.0
      ],
      "min": [
        -1.0,
        -1.0,
        -1.0
      ],
      "type": "VEC3"
    },
    {
      "bufferView": 0,
      "componentType": 5125,
      "count": 14136,
      "type": "SCALAR"
    },
    {
      "bufferView": 1,
      "byteOffset": 115440,
      "componentType": 5126,
      "count": 5225,
      "max": [
        24.0,
        -0.0,
        31.0
      ],
      "min": [
        -20.219999313354492,
        -28.371999740600586,
        -46.266998291015625
      ],
      "type": "VEC3"
    },
    {
      "bufferView": 1,
      "byteOffset": 178140,
      "componentType": 5126,
      "count": 5225,
      "max": [
        1.0,
        1.0,
        1.0
      ],
      "min": [
        -1.0,
        -1.0,
        -1.0
      ],
      "type": "VEC3"
    },
    {
      "bufferView": 0,
      "byteOffset": 56544,
      "componentType": 5125,
      "count": 15186,
      "type": "SCALAR"
    }
  ],
  "asset": {
    "extras": {
      "author": "Pacheco (https://sketchfab.com/RAPACHECO)",
      "license": "COPYRIGHT TO Pacheco",
      "source": "https://sketchfab.com/3d-models/tinker-e34b6dcf0b844431a0c53df501f41734",
      "title": "tinker"
    },
    "generator": "Sketchfab-17.19.0",
    "version": "2.0"
  },
  "bufferViews": [
    {
      "buffer": 0,
      "byteLength": 117288,
      "name": "floatBufferViews",
      "target": 34963
    },
    {
      "buffer": 0,
      "byteLength": 240840,
      "byteOffset": 117288,
      "byteStride": 12,
      "name": "floatBufferViews",
      "target": 34962
    }
  ],
  "buffers": [
    {
      "byteLength": 358128,
      "uri": "scene.bin"
    }
  ],
  "extensionsUsed": [
    "KHR_materials_specular"
  ],
  "materials": [
    {
      "doubleSided": true,
      "name": "color_10988977",
      "pbrMetallicRoughness": {
        "baseColorFactor": [
          0.4582317347560976,
          0.4746948612804878,
          0.4856709786585366,
          1.0
        ],
        "metallicFactor": 0.0
      }
    },
    {
      "doubleSided": true,
      "extensions": {
        "KHR_materials_specular": {
          "specularColorFactor": [
            1.0,
            1.0,
            1.0
          ],
          "specularFactor": 0.20579268292682926
        }
      },
      "name": "color_16448250",
      "pbrMetallicRoughness": {
        "baseColorFactor": [
          0.980392,
          0.980392,
          0.980392,
          1.0
        ],
        "metallicFactor": 0.0,
        "roughnessFactor": 0.0
      }
    }
  ],
  "meshes": [
    {
      "name": "Object_0",
      "primitives": [
        {
          "attributes": {
            "NORMAL": 1,
            "POSITION": 0
          },
          "indices": 2,
          "material": 0,
          "mode": 4
        }
      ]
    },
    {
      "name": "Object_1",
      "primitives": [
        {
          "attributes": {
            "NORMAL": 4,
            "POSITION": 3
          },
          "indices": 5,
          "material": 1,
          "mode": 4
        }
      ]
    }
  ],
  "nodes": [
    {
      "children": [
        1
      ],
      "matrix": [
        -0.009654204361140728,
        1.1103265214633992e-16,
        0.9999533891677856,
        0.0,
        -0.009787339717149734,
        -0.9999520778656006,
        -9.449337812861279e-05,
        0.0,
        0.999905526638031,
        -0.009787795133888723,
        0.009653741493821142,
        0.0,
        0.0,
        0.0,
        0.0,
        1.0
      ],
      "name": "Sketchfab_model"
    },
    {
      "children": [
        2,
        3
      ],
      "name": "tinker.obj.cleaner.materialmerger.gles"
    },
    {
      "mesh": 0,
      "name": "Object_2"
    },
    {
      "mesh": 1,
      "name": "Object_3"
    }
  ],
  "scene": 0,
  "scenes": [
    {
      "name": "Sketchfab_Scene",
      "nodes": [
        0
      ]
    }
  ]
}
